<svg width="21" height="20" viewBox="0 0 21 20" fill="none" xmlns="http://www.w3.org/2000/svg">
<g clip-path="url(#clip0_6009_2399)">
<path d="M16.375 8.36634C15.8083 5.49134 13.2833 3.33301 10.25 3.33301C7.84167 3.33301 5.75 4.69967 4.70833 6.69967C2.2 6.96634 0.25 9.09134 0.25 11.6663C0.25 14.4247 2.49167 16.6663 5.25 16.6663H16.0833C18.3833 16.6663 20.25 14.7997 20.25 12.4997C20.25 10.2997 18.5417 8.51634 16.375 8.36634ZM16.0833 14.9997H5.25C3.40833 14.9997 1.91667 13.508 1.91667 11.6663C1.91667 9.95801 3.19167 8.53301 4.88333 8.35801L5.775 8.26634L6.19167 7.47467C6.98333 5.94967 8.53333 4.99967 10.25 4.99967C12.4333 4.99967 14.3167 6.54967 14.7417 8.69134L14.9917 9.94134L16.2667 10.033C17.5667 10.1163 18.5833 11.208 18.5833 12.4997C18.5833 13.8747 17.4583 14.9997 16.0833 14.9997ZM6.91667 10.833H9.04167V13.333H11.4583V10.833H13.5833L10.25 7.49967L6.91667 10.833Z" fill="white"/>
</g>
<defs>
<clipPath id="clip0_6009_2399">
<rect width="20" height="20" fill="white" transform="translate(0.25)"/>
</clipPath>
</defs>
</svg>
