<svg width="21" height="20" viewBox="0 0 21 20" fill="none" xmlns="http://www.w3.org/2000/svg">
<g clip-path="url(#clip0_4134_1821)">
<path d="M10.7493 11.667C12.1327 11.667 13.2493 10.5503 13.2493 9.16699V4.16699C13.2493 2.78366 12.1327 1.66699 10.7493 1.66699C9.36602 1.66699 8.24935 2.78366 8.24935 4.16699V9.16699C8.24935 10.5503 9.36602 11.667 10.7493 11.667ZM9.91602 4.16699C9.91602 3.70866 10.291 3.33366 10.7493 3.33366C11.2077 3.33366 11.5827 3.70866 11.5827 4.16699V9.16699C11.5827 9.62533 11.2077 10.0003 10.7493 10.0003C10.291 10.0003 9.91602 9.62533 9.91602 9.16699V4.16699ZM14.916 9.16699C14.916 11.467 13.0493 13.3337 10.7493 13.3337C8.44935 13.3337 6.58268 11.467 6.58268 9.16699H4.91602C4.91602 12.1087 7.09102 14.5253 9.91602 14.9337V17.5003H11.5827V14.9337C14.4077 14.5253 16.5827 12.1087 16.5827 9.16699H14.916Z" fill="#209CFF"/>
</g>
<defs>
<clipPath id="clip0_4134_1821">
<rect width="20" height="20" fill="white" transform="translate(0.75)"/>
</clipPath>
</defs>
</svg>
