<svg width="20" height="20" viewBox="0 0 20 20" fill="none" xmlns="http://www.w3.org/2000/svg">
<g clip-path="url(#clip0_4126_1930)">
<path d="M1.66602 10.0003C1.66602 5.40033 5.39935 1.66699 9.99935 1.66699C14.5993 1.66699 18.3327 5.40033 18.3327 10.0003C18.3327 14.6003 14.5993 18.3337 9.99935 18.3337C5.39935 18.3337 1.66602 14.6003 1.66602 10.0003Z" fill="black" fill-opacity="0.72"/>
<path d="M18.334 9.99967C18.334 5.39967 14.6006 1.66634 10.0007 1.66634C5.40065 1.66634 1.66732 5.39967 1.66732 9.99967C1.66732 14.5997 5.40065 18.333 10.0007 18.333C14.6006 18.333 18.334 14.5997 18.334 9.99967ZM19.1673 9.99967C19.1673 15.0599 15.0609 19.1663 10.0007 19.1663C4.94041 19.1663 0.833984 15.0599 0.833984 9.99967C0.833984 4.93944 4.94041 0.833008 10.0007 0.833008C15.0609 0.833008 19.1673 4.93944 19.1673 9.99967Z" fill="white"/>
<path d="M6.66602 13.3337H13.3327V6.66699H6.66602V13.3337Z" fill="white"/>
</g>
<defs>
<clipPath id="clip0_4126_1930">
<rect width="20" height="20" fill="white"/>
</clipPath>
</defs>
</svg>
